<?xml version="1.0" standalone="no"?>
<svg xmlns:xlink="http://www.w3.org/1999/xlink" id="wave" style="transform:rotate(180deg); transition: 0.3s" viewBox="0 0 1440 490" version="1.1" xmlns="http://www.w3.org/2000/svg"><defs><linearGradient id="sw-gradient-0" x1="0" x2="0" y1="1" y2="0"><stop stop-color="rgba(253.043, 219.382, 243.969, 1)" offset="0%"/><stop stop-color="rgba(178.516, 156.189, 225.722, 1)" offset="100%"/></linearGradient></defs><path style="transform:translate(0, 0px); opacity:1" fill="url(#sw-gradient-0)" d="M0,245L60,261.3C120,278,240,310,360,277.7C480,245,600,147,720,130.7C840,114,960,180,1080,212.3C1200,245,1320,245,1440,212.3C1560,180,1680,114,1800,147C1920,180,2040,310,2160,359.3C2280,408,2400,376,2520,359.3C2640,343,2760,343,2880,294C3000,245,3120,147,3240,130.7C3360,114,3480,180,3600,179.7C3720,180,3840,114,3960,89.8C4080,65,4200,82,4320,122.5C4440,163,4560,229,4680,212.3C4800,196,4920,98,5040,73.5C5160,49,5280,98,5400,163.3C5520,229,5640,310,5760,359.3C5880,408,6000,425,6120,432.8C6240,441,6360,441,6480,416.5C6600,392,6720,343,6840,310.3C6960,278,7080,261,7200,212.3C7320,163,7440,82,7560,106.2C7680,131,7800,261,7920,310.3C8040,359,8160,327,8280,334.8C8400,343,8520,392,8580,416.5L8640,441L8640,490L8580,490C8520,490,8400,490,8280,490C8160,490,8040,490,7920,490C7800,490,7680,490,7560,490C7440,490,7320,490,7200,490C7080,490,6960,490,6840,490C6720,490,6600,490,6480,490C6360,490,6240,490,6120,490C6000,490,5880,490,5760,490C5640,490,5520,490,5400,490C5280,490,5160,490,5040,490C4920,490,4800,490,4680,490C4560,490,4440,490,4320,490C4200,490,4080,490,3960,490C3840,490,3720,490,3600,490C3480,490,3360,490,3240,490C3120,490,3000,490,2880,490C2760,490,2640,490,2520,490C2400,490,2280,490,2160,490C2040,490,1920,490,1800,490C1680,490,1560,490,1440,490C1320,490,1200,490,1080,490C960,490,840,490,720,490C600,490,480,490,360,490C240,490,120,490,60,490L0,490Z"/></svg>